<svg xmlns="http://www.w3.org/2000/svg" viewBox="0 0 144 144">
  <defs>
    <linearGradient id="bg" x1="10%" y1="10%" x2="90%" y2="90%">
      <stop offset="0%" stop-color="#171b25" />
      <stop offset="100%" stop-color="#090b11" />
    </linearGradient>
    <radialGradient id="glow" cx="50%" cy="35%" r="70%">
      <stop offset="0%" stop-color="#ff84aa" />
      <stop offset="100%" stop-color="#c01748" />
    </radialGradient>
  </defs>
  <rect width="144" height="144" rx="26" fill="url(#bg)" />
  <circle cx="72" cy="60" r="34" fill="url(#glow)" />
  <circle cx="72" cy="60" r="14" fill="#fff5f7" opacity="0.24" />
  <path
    d="M83 36v33.2c0 7.8-6.3 14.1-14.1 14.1S54.8 77 54.8 69.2s6.3-14.1 14.1-14.1c1.8 0 3.6.3 5 1V43.7L93 39.5v29.7c0 7.8-6.3 14.1-14.1 14.1S64.8 77 64.8 69.2s6.3-14.1 14.1-14.1c1.8 0 3.6.3 5 1V36H83Z"
    fill="#fff5f7"
  />
  <rect x="24" y="103" width="96" height="10" rx="5" fill="#242b3a" />
</svg>
